<svg xmlns="http://www.w3.org/2000/svg" version="1.1" xmlns:xlink="http://www.w3.org/1999/xlink" width="512" height="512" x="0" y="0" viewBox="0 0 173.397 173.397" style="enable-background:new 0 0 512 512" xml:space="preserve" fill-rule="evenodd" class=""><g><path d="M53.29 78.903H42.646a7.486 7.486 0 0 1-7.48-7.479l.001-14.265c0-6.499 5.285-11.786 11.784-11.786h2.034c6.5 0 11.788 5.287 11.788 11.787a1.67 1.67 0 1 1-3.342 0c0-4.657-3.788-8.445-8.446-8.445H46.95c-4.654 0-8.442 3.788-8.442 8.445l.001 14.264a4.14 4.14 0 0 0 4.135 4.137H53.29a4.141 4.141 0 0 0 4.139-4.137 1.671 1.671 0 0 1 3.342 0c.001 4.124-3.356 7.48-7.481 7.48z" fill="#bb4958" opacity="1" data-original="#000000"></path><path d="M31.602 77.414h-9.6a6.912 6.912 0 0 1-6.903-6.906v-13.55c0-5.567 4.526-10.096 10.096-10.096h3.217c5.567 0 10.096 4.53 10.096 10.096l.001.204a1.676 1.676 0 0 1-1.672 1.669h-.004a1.67 1.67 0 0 1-1.667-1.674v-.202c0-3.72-3.033-6.75-6.754-6.75h-3.216a6.762 6.762 0 0 0-6.755 6.753v13.55a3.566 3.566 0 0 0 3.561 3.564h9.6a3.569 3.569 0 0 0 3.564-3.564 1.671 1.671 0 0 1 3.342 0c.001 3.808-3.099 6.906-6.906 6.906z" fill="#bb4958" opacity="1" data-original="#000000"></path><path d="M16.77 63.81c-.09 0-.185-.008-.279-.024-2.718-.46-4.794-2.85-5.045-5.811l-1.224-14.274c-.773-9.04 5.886-17.587 15.488-19.881 4.548-1.086 10.831-2.09 19.218-3.067 36.705-4.278 46.857-4.278 83.545 0 8.383.977 14.667 1.98 19.217 3.067 9.604 2.294 16.259 10.841 15.486 19.881l-1.221 14.274c-.254 2.962-2.33 5.351-5.046 5.811a1.672 1.672 0 0 1-.557-3.296c1.216-.205 2.148-1.356 2.274-2.8l1.223-14.274c.633-7.406-4.931-14.432-12.935-16.345-4.417-1.056-10.58-2.037-18.831-2.999-36.346-4.238-46.402-4.237-82.769 0-8.25.963-14.41 1.943-18.828 2.999-8.006 1.912-13.567 8.94-12.933 16.345l1.223 14.274c.12 1.443 1.057 2.595 2.272 2.8a1.671 1.671 0 0 1-.278 3.32z" fill="#bb4958" opacity="1" data-original="#000000"></path><path d="M99.684 45.098c-6.238 0-11.315 5.077-11.315 11.316v17.235a5.536 5.536 0 0 0 5.53 5.529H107.1a5.536 5.536 0 0 0 5.527-5.529l.002-17.236c0-6.239-5.077-11.315-11.316-11.315zm7.417 37.422H93.898c-4.89 0-8.87-3.98-8.87-8.87V56.412c0-8.082 6.576-14.657 14.656-14.657h1.631c8.08 0 14.656 6.575 14.656 14.658v17.235c0 4.892-3.98 8.871-8.87 8.871z" fill="#bb4958" opacity="1" data-original="#000000"></path><path d="M79.5 82.52H66.302c-4.893 0-8.872-3.98-8.872-8.87V56.412c0-8.082 6.573-14.657 14.657-14.657h1.627c8.084 0 14.656 6.575 14.656 14.658a1.671 1.671 0 1 1-3.343 0c.001-6.24-5.076-11.316-11.314-11.316h-1.625c-6.239 0-11.316 5.076-11.316 11.316l.001 17.235a5.533 5.533 0 0 0 5.528 5.529h13.198c3.05 0 5.528-2.48 5.528-5.529a1.672 1.672 0 0 1 3.343 0c0 4.892-3.98 8.871-8.87 8.871zM130.757 78.903h-10.65c-4.125 0-7.48-3.355-7.48-7.479a1.672 1.672 0 0 1 3.343 0 4.142 4.142 0 0 0 4.136 4.137h10.651a4.14 4.14 0 0 0 4.135-4.137l.001-14.265c0-4.656-3.789-8.444-8.447-8.444h-2.033c-4.654 0-8.443 3.788-8.443 8.445a1.67 1.67 0 1 1-3.342 0c.001-6.5 5.285-11.787 11.785-11.787h2.034c6.5 0 11.787 5.287 11.787 11.787v14.264c0 4.124-3.356 7.48-7.477 7.48z" fill="#bb4958" opacity="1" data-original="#000000"></path><path d="M151.395 77.414h-9.594c-3.809 0-6.908-3.098-6.908-6.906a1.672 1.672 0 0 1 3.342 0 3.568 3.568 0 0 0 3.565 3.564h9.595a3.566 3.566 0 0 0 3.565-3.564v-13.55a6.762 6.762 0 0 0-6.754-6.753h-3.217a6.762 6.762 0 0 0-6.754 6.753v.233a1.672 1.672 0 0 1-3.342 0v-.233c0-5.567 4.529-10.096 10.096-10.096h3.218c5.566 0 10.095 4.53 10.095 10.096v13.55c0 3.808-3.098 6.906-6.907 6.906zM97.366 58.981c-.007 0-.025.016-.025.025l.001 6.264 6.29.024.025-6.288zm6.266 9.655h-6.266a3.37 3.37 0 0 1-3.367-3.366L94 59.006a3.37 3.37 0 0 1 3.366-3.367h6.266A3.37 3.37 0 0 1 107 59.006v6.264a3.37 3.37 0 0 1-3.367 3.366zM69.769 58.981c-.011 0-.025.016-.025.025v6.264l6.288.024.024-6.288zm6.263 9.655H69.77a3.372 3.372 0 0 1-3.367-3.366v-6.264a3.37 3.37 0 0 1 3.366-3.367h6.264a3.37 3.37 0 0 1 3.366 3.367l.001 6.264a3.372 3.372 0 0 1-3.367 3.366zM44.839 58.981c-.011 0-.026.016-.026.025v6.264l6.287.024.026-6.288zm6.262 9.655h-6.262a3.37 3.37 0 0 1-3.368-3.366v-6.264a3.367 3.367 0 0 1 3.366-3.367H51.1a3.37 3.37 0 0 1 3.367 3.367v6.264a3.37 3.37 0 0 1-3.367 3.366zM122.301 58.981c-.011 0-.025.016-.025.025l.001 6.264 6.287.024.024-6.288zm6.263 9.655h-6.263a3.369 3.369 0 0 1-3.367-3.366v-6.264a3.368 3.368 0 0 1 3.366-3.367h6.264a3.37 3.37 0 0 1 3.366 3.367l.001 6.264a3.371 3.371 0 0 1-3.367 3.366z" fill="#bb4958" opacity="1" data-original="#000000"></path><path d="M143.465 58.981c-.008 0-.025.016-.025.025v6.264l6.292.024.023-6.288zm6.267 9.655h-6.267a3.37 3.37 0 0 1-3.367-3.366v-6.264a3.37 3.37 0 0 1 3.366-3.367h6.268a3.37 3.37 0 0 1 3.365 3.367l.001 6.264a3.371 3.371 0 0 1-3.366 3.366zM23.671 58.981c-.01 0-.025.016-.025.025v6.264l6.287.024.025-6.288zm6.262 9.655h-6.262a3.371 3.371 0 0 1-3.368-3.366l.002-6.264a3.37 3.37 0 0 1 3.365-3.367h6.263a3.37 3.37 0 0 1 3.367 3.367v6.264a3.371 3.371 0 0 1-3.367 3.366z" fill="#bb4958" opacity="1" data-original="#000000"></path><path d="M21.975 63.81H16.77a1.672 1.672 0 0 1 0-3.343h5.205a1.671 1.671 0 0 1 0 3.342zm21.167 0H31.628a1.672 1.672 0 0 1 0-3.343h11.514a1.671 1.671 0 0 1 0 3.342zm24.932 0H52.797a1.672 1.672 0 0 1-.001-3.343h15.278a1.67 1.67 0 0 1 0 3.342zm27.597 0H77.727a1.672 1.672 0 0 1 0-3.343H95.67a1.67 1.67 0 0 1 0 3.342zm24.934 0H105.33a1.67 1.67 0 1 1-.001-3.343h15.278a1.67 1.67 0 0 1 0 3.342zm21.164 0h-11.51a1.671 1.671 0 0 1 0-3.343h11.51a1.67 1.67 0 0 1 0 3.342zm14.862 0h-5.204a1.67 1.67 0 0 1-1.672-1.672 1.67 1.67 0 0 1 1.671-1.67h5.205a1.671 1.671 0 0 1 0 3.341zM48.984 128.025H46.95c-6.498 0-11.784-5.287-11.784-11.787v-14.265c0-4.124 3.353-7.479 7.478-7.479H53.29c4.125 0 7.481 3.355 7.481 7.48a1.67 1.67 0 1 1-3.342 0 4.142 4.142 0 0 0-4.14-4.138H42.645a4.142 4.142 0 0 0-4.137 4.137l.001 14.265c0 4.656 3.787 8.445 8.441 8.445h2.034c4.66 0 8.446-3.789 8.446-8.445a1.671 1.671 0 0 1 3.342 0c.001 6.5-5.288 11.787-11.788 11.787z" fill="#bb4958" opacity="1" data-original="#000000"></path><path d="M28.412 126.535h-3.216c-5.571 0-10.098-4.529-10.098-10.096v-13.55c0-3.808 3.096-6.906 6.904-6.906h9.6a6.913 6.913 0 0 1 6.906 6.906 1.67 1.67 0 1 1-3.342 0 3.57 3.57 0 0 0-3.565-3.564h-9.598a3.568 3.568 0 0 0-3.562 3.564v13.55a6.76 6.76 0 0 0 6.754 6.754h3.217a6.762 6.762 0 0 0 6.754-6.754v-.198a1.67 1.67 0 0 1 1.667-1.674h.004c.92 0 1.667.746 1.67 1.668l.002.2c0 5.571-4.53 10.1-10.097 10.1z" fill="#bb4958" opacity="1" data-original="#000000"></path><path d="M86.706 155.853c-11.712 0-23.424-1.069-41.778-3.21-8.383-.974-14.671-1.977-19.218-3.067-9.6-2.293-16.262-10.84-15.49-19.88l1.227-14.274c.25-2.96 2.325-5.35 5.044-5.81a1.672 1.672 0 0 1 .557 3.295c-1.215.205-2.152 1.357-2.273 2.8l-1.221 14.274c-.635 7.406 4.925 14.433 12.932 16.346 4.419 1.056 10.577 2.036 18.828 2.998 36.368 4.238 46.422 4.238 82.769 0 8.255-.962 14.413-1.943 18.831-2.998 8.005-1.913 13.567-8.94 12.934-16.345l-1.221-14.275c-.126-1.443-1.06-2.594-2.275-2.8a1.673 1.673 0 0 1-1.368-1.926 1.668 1.668 0 0 1 1.925-1.37c2.716.46 4.79 2.85 5.045 5.811l1.222 14.274c.773 9.04-5.883 17.588-15.486 19.88-4.546 1.086-10.834 2.093-19.217 3.067-18.344 2.142-30.056 3.21-41.767 3.21z" fill="#bb4958" opacity="1" data-original="#000000"></path><path d="M93.898 94.219a5.537 5.537 0 0 0-5.528 5.529v17.235c0 6.24 5.076 11.316 11.314 11.316h1.631c6.239 0 11.313-5.076 11.313-11.315l.002-17.236a5.537 5.537 0 0 0-5.53-5.529zm7.417 37.422h-1.63c-8.08 0-14.658-6.575-14.658-14.657l.001-17.236c0-4.892 3.979-8.871 8.87-8.871h13.203c4.89 0 8.87 3.98 8.87 8.87v17.236c0 8.083-6.577 14.658-14.656 14.658z" fill="#bb4958" opacity="1" data-original="#000000"></path><path d="M73.714 131.641h-1.626c-8.084 0-14.658-6.575-14.658-14.657V99.748c0-4.892 3.979-8.871 8.87-8.871h13.2c4.89 0 8.87 3.98 8.87 8.87a1.671 1.671 0 1 1-3.343 0A5.533 5.533 0 0 0 79.5 94.22H66.302c-3.05 0-5.53 2.48-5.53 5.529l.001 17.235c0 6.24 5.075 11.316 11.314 11.316h1.627c6.238 0 11.313-5.076 11.313-11.315a1.672 1.672 0 0 1 3.343 0c0 8.082-6.574 14.657-14.656 14.657zM126.448 128.025h-2.034c-6.5 0-11.785-5.287-11.785-11.787a1.672 1.672 0 0 1 3.342 0c0 4.656 3.788 8.445 8.442 8.445h2.035c4.658 0 8.445-3.789 8.445-8.445v-14.265a4.142 4.142 0 0 0-4.136-4.137h-10.65a4.142 4.142 0 0 0-4.136 4.137 1.67 1.67 0 1 1-3.342 0c.001-4.124 3.353-7.479 7.478-7.479h10.65c4.123 0 7.478 3.355 7.478 7.48v14.264c0 6.5-5.288 11.787-11.787 11.787z" fill="#bb4958" opacity="1" data-original="#000000"></path><path d="M148.207 126.535h-3.218c-5.566 0-10.097-4.529-10.097-10.096l.002-.233a1.67 1.67 0 1 1 3.34 0l.001.233a6.76 6.76 0 0 0 6.754 6.754h3.218a6.76 6.76 0 0 0 6.753-6.754v-13.55c0-1.965-1.598-3.564-3.565-3.564H141.8a3.568 3.568 0 0 0-3.566 3.564 1.671 1.671 0 0 1-3.343 0 6.915 6.915 0 0 1 6.908-6.906h9.595a6.914 6.914 0 0 1 6.907 6.906v13.55c0 5.567-4.53 10.096-10.096 10.096zM97.366 108.103l-.024 6.289.024.024h6.266l.025-6.289zm6.266 9.655h-6.266a3.37 3.37 0 0 1-3.367-3.366l.001-6.265a3.37 3.37 0 0 1 3.366-3.366h6.266a3.37 3.37 0 0 1 3.367 3.366v6.265a3.37 3.37 0 0 1-3.367 3.366zM69.769 108.103l-.025 6.289.025.024h6.263l.024-6.289zm6.263 9.655H69.77a3.372 3.372 0 0 1-3.367-3.366v-6.265a3.37 3.37 0 0 1 3.366-3.366h6.264a3.37 3.37 0 0 1 3.366 3.366l.001 6.265a3.371 3.371 0 0 1-3.367 3.366zM44.839 108.103l-.025 6.289.025.024H51.1l.025-6.289zm6.262 9.655h-6.262a3.37 3.37 0 0 1-3.368-3.366v-6.265a3.367 3.367 0 0 1 3.366-3.366H51.1a3.37 3.37 0 0 1 3.367 3.366v6.265a3.37 3.37 0 0 1-3.367 3.366zM122.301 108.103l-.024 6.289.024.024h6.263l.024-6.289zm6.263 9.655h-6.263a3.369 3.369 0 0 1-3.367-3.366v-6.265a3.368 3.368 0 0 1 3.366-3.366h6.264a3.37 3.37 0 0 1 3.366 3.366l.001 6.265a3.371 3.371 0 0 1-3.367 3.366z" fill="#bb4958" opacity="1" data-original="#000000"></path><path d="m143.465 108.103-.025 6.289.025.024h6.267l.023-6.289zm6.267 9.655h-6.267a3.37 3.37 0 0 1-3.367-3.366v-6.265a3.37 3.37 0 0 1 3.366-3.366h6.268a3.37 3.37 0 0 1 3.365 3.366l.001 6.265a3.371 3.371 0 0 1-3.366 3.366zM23.671 108.103l-.025 6.289.025.024h6.262l.025-6.289zm6.262 9.655h-6.262a3.371 3.371 0 0 1-3.368-3.366l.002-6.265a3.37 3.37 0 0 1 3.365-3.366h6.263a3.37 3.37 0 0 1 3.367 3.366v6.265a3.371 3.371 0 0 1-3.367 3.366z" fill="#bb4958" opacity="1" data-original="#000000"></path><path d="M21.975 112.93H16.77a1.672 1.672 0 0 1 0-3.342h5.205a1.671 1.671 0 0 1 0 3.342zm21.167 0H31.628a1.672 1.672 0 0 1 0-3.342h11.514a1.671 1.671 0 0 1 0 3.342zm24.932 0H52.797a1.672 1.672 0 0 1-.001-3.342h15.278a1.67 1.67 0 0 1 0 3.342zm27.597 0H77.727a1.672 1.672 0 0 1 0-3.342H95.67a1.671 1.671 0 0 1 0 3.342zm24.934 0H105.33a1.67 1.67 0 1 1-.001-3.342h15.278a1.67 1.67 0 0 1 0 3.342zm21.164 0h-11.51a1.672 1.672 0 0 1 0-3.342h11.51a1.67 1.67 0 0 1 0 3.342zm14.862 0h-5.204a1.67 1.67 0 0 1-1.672-1.671 1.67 1.67 0 0 1 1.671-1.671h5.205a1.671 1.671 0 0 1 0 3.342z" fill="#bb4958" opacity="1" data-original="#000000"></path></g></svg>