<svg xmlns="http://www.w3.org/2000/svg" version="1.1" xmlns:xlink="http://www.w3.org/1999/xlink" width="512" height="512" x="0" y="0" viewBox="0 0 512 512" style="enable-background:new 0 0 512 512" xml:space="preserve"><g><path d="M391.05 34.9c-14.88-14.76-32.64-23.3-52.78-25.39-18.21-1.89-37.93 1.54-58.62 10.19-15.7 6.57-31.61 6.57-47.31 0-20.69-8.66-40.41-12.09-58.62-10.19-20.14 2.09-37.9 10.63-52.78 25.39-21.59 21.41-32.78 47.4-33.24 77.24-.43 27.31 8.16 57.18 25.52 88.77 7.11 12.94 20.17 20.66 34.93 20.66h.56l5.61 17.83c3.28 10.43 12.83 17.44 23.77 17.44h20.46l2.36 32.11-10.18 2.73c-13.08 3.51-20.87 17-17.37 30.08 2.94 10.96 12.89 18.21 23.73 18.21 2.1 0 4.23-.27 6.35-.84l1.14-.31 1.09 14.87-9.85 2.64c-13.08 3.5-20.87 17-17.37 30.08 2.94 10.96 12.89 18.21 23.73 18.21 2.1 0 4.23-.27 6.35-.84l.81-.22 1.02 13.79-10.33 2.77c-13.08 3.51-20.87 17-17.37 30.08 1.69 6.32 5.76 11.61 11.45 14.9 3.8 2.19 8.01 3.31 12.27 3.31 2.12 0 4.26-.28 6.36-.84l1.29-.35.12 1.61c1.41 19.16 17.56 34.16 36.77 34.16h10.14c19.21 0 35.36-15.01 36.77-34.16l1.81-24.55 12.32-3.3c6.32-1.69 11.61-5.76 14.9-11.45s4.17-12.31 2.47-18.63c-1.69-6.32-5.76-11.61-11.46-14.9-4.44-2.57-9.45-3.66-14.44-3.21l1.09-14.74 11.65-3.12c6.32-1.69 11.61-5.76 14.9-11.46 3.29-5.69 4.17-12.31 2.47-18.63-1.69-6.32-5.76-11.61-11.46-14.9-4.25-2.45-9.01-3.56-13.78-3.26l1.18-15.98 11.79-3.16c6.32-1.69 11.61-5.76 14.9-11.45s4.17-12.31 2.47-18.63c-1.69-6.32-5.76-11.61-11.46-14.9-4.29-2.48-9.1-3.58-13.92-3.26l.18-2.48h20.46c10.94 0 20.49-7.01 23.77-17.44l5.61-17.83h.56c14.76 0 27.82-7.72 34.93-20.66 17.36-31.59 25.95-61.46 25.52-88.77-.46-29.83-11.65-55.82-33.24-77.22zM283.88 467.81c-.89 12.08-10.69 21.19-22.81 21.19h-10.14c-12.11 0-21.92-9.11-22.81-21.19l-.31-4.27 57.52-15.41zm27-59.67c2.46 1.42 4.21 3.69 4.93 6.4.73 2.71.34 5.55-1.07 8-1.42 2.46-3.69 4.21-6.4 4.93l-99.21 26.58c-2.71.72-5.55.34-8-1.07-2.46-1.42-4.21-3.69-4.93-6.4-.73-2.71-.34-5.55 1.07-8 1.42-2.45 3.69-4.21 6.39-4.93l99.21-26.58c2.71-.73 5.55-.35 8.01 1.07zm-21.74-11.89-65.01 17.42-1.02-13.79 67.08-17.97zm25.94-54.16c2.46 1.42 4.21 3.69 4.93 6.4.73 2.71.34 5.55-1.07 8-1.42 2.45-3.69 4.21-6.39 4.93l-107.63 28.84c-2.71.72-5.55.34-8-1.07-2.46-1.42-4.21-3.69-4.93-6.39-.73-2.71-.34-5.55 1.07-8 1.42-2.45 3.69-4.21 6.39-4.93l107.63-28.84c2.7-.74 5.55-.36 8 1.06zm-21.06-12.07L219.45 350l-1.09-14.87 76.8-20.58zm26.16-55.32c2.46 1.42 4.21 3.69 4.93 6.4.73 2.71.34 5.55-1.07 8-1.42 2.45-3.69 4.21-6.39 4.93L199.82 325.6c-2.71.73-5.55.34-8-1.07-2.46-1.42-4.21-3.69-4.93-6.4-1.51-5.62 1.84-11.43 7.47-12.94l117.82-31.57c2.7-.72 5.54-.34 8 1.08zm-21.2-12.03-84.29 22.59-2.09-28.42h86.82zm45.34-27.47c-1.46 4.64-5.55 7.64-10.42 7.64H178.1c-4.87 0-8.96-3-10.42-7.64l-4.29-13.63h185.22zm42.19-41.04c-4.68 8.52-12.94 13.4-22.66 13.4h-215.7c-9.72 0-17.98-4.89-22.66-13.4-23.38-42.54-41.43-102.98 5.31-149.33 16.36-16.22 34.91-21.82 52.74-21.82 15.68 0 30.81 4.34 43.39 9.6 19.28 8.07 38.84 8.07 58.12 0 26.89-11.25 65.39-18.26 96.14 12.22 46.75 46.36 28.69 106.79 5.32 149.33zM384.05 82a6.998 6.998 0 0 1-6.37 9.9c-2.66 0-5.2-1.52-6.37-4.1-3.16-6.94-7.75-13.42-13.63-19.25-14.57-14.45-33.55-16.08-59.73-5.13-3.57 1.49-7.67-.19-9.16-3.76s.19-7.67 3.76-9.16c31.18-13.05 56.41-10.32 74.99 8.1 7.09 7.04 12.65 14.91 16.51 23.4z" fill="#bb4958" opacity="1" data-original="#000000"></path></g></svg>