<svg xmlns="http://www.w3.org/2000/svg" version="1.1" xmlns:xlink="http://www.w3.org/1999/xlink" width="512" height="512" x="0" y="0" viewBox="0 0 75 75" style="enable-background:new 0 0 512 512" xml:space="preserve" class=""><g><path d="M70.25 15.848v-2.166c0-1.924-1.61-2.435-2.218-2.629-18.445-5.848-35.487-5.83-52.096.058-.814.288-2.33.825-2.33 2.768v1.832c0 2.648 2.522 3.752 2.844 2.41a.75.75 0 0 0-.555-.905c-.38-.09-.789-.692-.789-1.505v-1.832c0-.75.349-1.006 1.33-1.354 16.292-5.775 33.02-5.788 51.143-.042.897.285 1.171.565 1.171 1.2v2.165c0 .729-.358 1.265-.69 1.345a.75.75 0 0 0-.554.905c.31 1.29 2.744.278 2.744-2.25z" fill="#bb4958" opacity="1" data-original="#000000"></path><path d="M65.316 17.608a2.716 2.716 0 0 0-2.713-2.713H61.07a2.71 2.71 0 0 0-2.272 1.239c-1.482-1.86-4.9-2.3-7.188.287a3.302 3.302 0 0 0-2.826-1.609h-3.961a3.184 3.184 0 0 0-2.48 1.201 3.182 3.182 0 0 0-2.424-1.134h-3.96c-1.202 0-2.246.649-2.827 1.609-2.29-2.595-5.71-2.144-7.188-.287a2.709 2.709 0 0 0-2.272-1.24h-1.534a2.716 2.716 0 0 0-2.713 2.713v4.016c0 .74.573 1.35 1.3 1.406 1.272.325 2.455.326 3.703.002.208-.01.405-.06.592-.129.115 1.647 1.326 3.039 4.074 3.063.18.026.6.079 1.125.079.782 0 1.792-.125 2.602-.614a3.038 3.038 0 0 0 2.868 2.066h3.652a3.77 3.77 0 0 0 3.058-1.576 3.764 3.764 0 0 0 3.002 1.51h3.652c1.335 0 2.459-.87 2.868-2.067 1.046.631 2.54.708 3.727.535 2.747-.025 3.96-1.417 4.074-3.063.187.069.383.119.592.13 1.24.321 2.422.325 3.704-.002a1.412 1.412 0 0 0 1.299-1.407v-4.015zm-40.432 3.429a.565.565 0 0 1-.565.564c-.344 0-1.409.522-3.293.025a.904.904 0 0 0-.102-.02v-3.932c0-.668.544-1.212 1.213-1.212h1.534c.67 0 1.213.544 1.213 1.212v3.363zm4.39 3.505c-.227-.034-1.72.058-2.405-.745-.514-.604-.31-1.285-.352-1.52-.25-1.435-.1-2.935.069-3.94.467-2.792 4.433-2.886 5.925-.15.034.064.085.112.134.162v5.273a.73.73 0 0 0-.164.181c-.556.934-2.552.842-3.207.739zm12.346-.76a2.283 2.283 0 0 1-2.28 2.281h-3.652a1.545 1.545 0 0 1-1.543-1.543v-6.329c0-.999.813-1.812 1.812-1.812h3.961c.939 0 1.702.763 1.702 1.702v5.702zm8.975.672c0 .85-.692 1.543-1.543 1.543H45.4a2.283 2.283 0 0 1-2.28-2.28v-5.704c0-.938.763-1.7 1.702-1.7h3.961c1 0 1.812.812 1.812 1.81zm7.285-.736c-.406.487-1.2.745-2.294.747-.113 0-2.66.39-3.327-.729a.73.73 0 0 0-.164-.181v-5.273c.05-.05.1-.099.135-.164.059-.112 1.482-2.73 4.318-1.81.821.268 1.452 1.037 1.607 1.961.168 1.007.317 2.507.068 3.94-.042.24.163.904-.343 1.51zm5.936-2.178a.917.917 0 0 0-.102.02c-1.871.493-2.966-.025-3.293-.025a.566.566 0 0 1-.565-.566v-3.36c0-.67.544-1.214 1.213-1.214h1.534c.67 0 1.213.544 1.213 1.213v3.932zM39.173 43.856h-3.359c-.92 0-1.67-.749-1.67-1.67a.75.75 0 0 0-.457-.69.738.738 0 0 0-1.206.1c-.228.382-.716.633-1.45.744-.974.147-.765 1.635.225 1.483.633-.096 1.16-.284 1.593-.55a3.165 3.165 0 0 0 2.965 2.083h3.359a3.94 3.94 0 0 0 3.225-1.684 3.934 3.934 0 0 0 3.17 1.617h3.358c1.364 0 2.52-.872 2.965-2.084 1.045.646 2.552.73 3.756.552 1.993-.017 3.736-.8 4.04-2.777 1.398.17 2.96.063 3.865-.157a1.413 1.413 0 0 0 1.301-1.407v-4.29a2.441 2.441 0 0 0-2.438-2.439h-2.457c-.65 0-1.225.309-1.604.78-1.63-1.476-4.706-1.607-6.78.787a3.444 3.444 0 0 0-2.932-1.65h-3.685a3.32 3.32 0 0 0-2.615 1.29 3.317 3.317 0 0 0-2.56-1.222h-3.684a3.444 3.444 0 0 0-2.934 1.654c-.737-.856-2.086-1.963-4.094-1.847a.75.75 0 0 0-.702.795c.025.412.37.73.794.703 2.16-.147 3.292 1.898 3.349 2.002.032.06.09.093.134.14v.006a.75.75 0 0 0 1.5 0c0-1.077.876-1.953 1.953-1.953h3.685a1.84 1.84 0 0 1 1.837 1.836c0 .986 1.513 1.018 1.496-.044 0-.009.004-.015.004-.023a1.84 1.84 0 0 1 1.837-1.837h3.685c1.077 0 1.953.877 1.953 1.954a.75.75 0 0 0 1.5 0v-.006c.045-.047.103-.08.135-.141.06-.112 1.488-2.736 4.318-1.809.465.15.867.453 1.164.875a.73.73 0 0 0 .373.265c.465.53 1.308.192 1.308-.49 0-.31.254-.565.565-.565h2.457a.94.94 0 0 1 .938.939v4.206a.917.917 0 0 0-.102.02c-.977.256-3.004.314-4.154.001-.6-.16-1.156.442-.864 1.046.043 1.42-1.226 1.856-2.648 1.858-.105 0-2.658.393-3.326-.728a.74.74 0 0 0-1.206-.1.75.75 0 0 0-.458.69c0 .92-.749 1.67-1.67 1.67h-3.358a2.45 2.45 0 0 1-2.447-2.448c0-.985-1.512-1.018-1.495.045 0 .008-.005.015-.005.023a2.45 2.45 0 0 1-2.447 2.447z" fill="#bb4958" opacity="1" data-original="#000000"></path><path d="M11.95 33.786 7.683 39.22a5.153 5.153 0 0 0-1.077 2.647l-.91 8.448a415.4 415.4 0 0 1-.926 5.421c-.094.4.15.8.55.9a.745.745 0 0 0 .908-.547c.068-.277.933-5.392.958-5.601l.91-8.46c.075-.691.34-1.34.765-1.879l4.266-5.435a3.722 3.722 0 0 1 2.515-1.388l4.505-.468 5.112.192c1.507.059 1.047 1.569.224 1.708-5.117.885-5.983 1.026-6.08 1.058l-1.607.555c-1.874.645-2.572 1.996-2.766 2.2a5.127 5.127 0 0 0-.88 4.363c1.026 4.022.942 3.834 1.04 4.001.573.98 1.294 1.29 1.799 1.377 1.057.176 2.244-.495 2.469-.909 1.095-2.037 2.248-3.674 3.427-4.868 2.893-2.95 5.335-2.679 6.546-2.18-2.64 3.956-7.68 10.822-8.728 13.046-.314.669-1.293 2.013-2.131 2.81-.367.347-.753.724-1.078 1.168-2.768 3.767-3.016 7.017-3.18 9.168-.026.334-.05.648-.081.94a.75.75 0 0 0 .746.831c1.853 0-.589-4.182 3.724-10.05.253-.346.57-.655.902-.97.905-.86 2.03-2.353 2.455-3.257.919-1.948 6.232-9.278 8.618-12.853.273-.406.34-.903.185-1.364a1.513 1.513 0 0 0-.945-.956c-1.537-.545-4.63-.927-8.102 2.615-1.249 1.265-2.46 2.968-3.6 5.064-.76.503-1.272.356-1.678-.283l-.933-3.694c-.507-2.044.813-3.283.91-3.481.966-1.321 2.244-1.375 3.32-1.835l5.9-1.017c1.664-.282 2.467-2.204 1.742-3.49-.407-.723-1.195-1.158-2.161-1.195-3.71-.139-5.199-.2-5.272-.192l-4.556.474a5.232 5.232 0 0 0-3.538 1.95z" fill="#bb4958" opacity="1" data-original="#000000"></path></g></svg>