<svg xmlns="http://www.w3.org/2000/svg" version="1.1" xmlns:xlink="http://www.w3.org/1999/xlink" width="512" height="512" x="0" y="0" viewBox="0 0 64 64" style="enable-background:new 0 0 512 512" xml:space="preserve" class=""><g><path d="M18.928 7.226a44.308 44.308 0 0 0-1.638-.602 1 1 0 0 0-.639 1.895c.505.17 1.021.368 1.562.575a1 1 0 0 0 .714-1.869zM11.843 6.298c-.615.165-1.236.395-1.9.702-2.06.954-3.075 3.167-3.563 4.854-.795 2.749-.843 6.284-.132 9.699a1 1 0 1 0 1.958-.408c-.646-3.106-.612-6.291.095-8.736.373-1.289 1.106-2.958 2.482-3.595a9.91 9.91 0 0 1 1.578-.585 1 1 0 0 0-.518-1.932z" fill="#bb4958" opacity="1" data-original="#000000" class=""></path><path d="m61.628 8.193-15.14-6.12a1.005 1.005 0 0 0-.749 0L42.23 3.492c-.076-.037-.151-.086-.226-.12-5.328-2.469-8.921-1.097-12.092.114-1.621.619-3.152 1.204-4.779 1.204s-3.158-.584-4.778-1.204C17.184 2.275 13.59.902 8.264 3.372c-2.713 1.253-4.692 3.799-5.724 7.36-1.731 5.974-.573 14.045 2.754 19.191 4.135 6.387 4.493 10.557 4.945 15.835l.214 2.388c.629 6.811 1.28 13.853 5.041 13.853 1.991 0 2.548-3.139 3.472-8.338 1.054-5.939 2.498-14.072 6.168-14.072s5.109 8.126 6.162 14.059c.924 5.208 1.482 8.351 3.479 8.351 3.76 0 4.41-7.04 5.04-13.848l.211-2.36c.3-3.496.577-6.563 1.941-10.086 1.228.59 2.53 1.075 3.889 1.44a.99.99 0 0 0 .52-.001c12.081-3.262 14.995-13.8 15.688-18.183a16.54 16.54 0 0 0 .192-2.502v-7.34a1 1 0 0 0-.625-.927zM38.031 45.621l-.21 2.347c-.379 4.105-1.078 11.661-2.912 12.019-.584-.708-1.195-4.148-1.646-6.687-1.242-7-2.788-15.71-8.131-15.71s-6.894 8.718-8.137 15.723c-.45 2.532-1.059 5.964-1.641 6.674-1.833-.362-2.531-7.918-2.911-12.023l-.213-2.375c-.458-5.336-.854-9.945-5.259-16.75-2.99-4.626-4.07-12.17-2.512-17.548.604-2.083 1.899-4.833 4.643-6.102 4.562-2.114 7.465-1.006 10.538.168 1.719.656 3.496 1.335 5.492 1.335s3.773-.679 5.492-1.335c2.702-1.031 5.271-2.012 8.959-.795l-8.977 3.634c-.377.153-.625.52-.625.927v7.34a16.525 16.525 0 0 0 .311 3.187l.051.249c.034.172.068.342.109.528.025.112.056.234.084.35.04.171.079.338.126.518.034.129.074.267.111.401.049.179.097.356.153.542.044.146.095.298.142.447.059.185.116.368.182.559.054.157.116.32.175.481.07.192.139.382.216.578.065.165.138.333.208.501.083.199.165.396.256.598.077.17.161.342.244.513.098.203.194.406.3.611.089.173.187.347.282.521.113.206.226.411.348.618.103.175.214.349.323.523.129.206.259.411.397.616.118.174.243.347.368.521.146.204.294.406.451.608.133.172.274.342.415.512.165.199.332.397.508.593.15.168.306.332.464.497.185.193.373.384.569.573a19.952 19.952 0 0 0 1.721 1.474 20.744 20.744 0 0 0 1.33.93c.12.077.23.16.353.236-1.55 3.883-1.83 7.142-2.15 10.877zM60.253 16.46c0 .742-.055 1.461-.168 2.194-.626 3.962-3.241 13.451-13.973 16.489a20.07 20.07 0 0 1-4.187-1.699c-7.341-4.042-9.281-11.69-9.774-14.786a14.34 14.34 0 0 1-.168-2.198V9.794l14.129-5.715 14.141 5.716v6.666z" fill="#bb4958" opacity="1" data-original="#000000" class=""></path><path d="M45.119 13.291v4.814h-4.815a1 1 0 0 0 0 2h4.815v4.814a1 1 0 0 0 2 0v-4.814h4.814a1 1 0 0 0 0-2h-4.814v-4.814a1 1 0 0 0-2 0z" fill="#bb4958" opacity="1" data-original="#000000" class=""></path></g></svg>