<svg xmlns="http://www.w3.org/2000/svg" version="1.1" xmlns:xlink="http://www.w3.org/1999/xlink" width="512" height="512" x="0" y="0" viewBox="0 0 512.004 512.004" style="enable-background:new 0 0 512 512" xml:space="preserve" class=""><g><path d="M99.523 150.17c4.545 12.545 16.563 20.973 29.906 20.973h188.918c4.143 0 7.5-3.358 7.5-7.5s-3.357-7.5-7.5-7.5H129.429c-7.051 0-13.401-4.454-15.803-11.083l-6.113-16.871a82.669 82.669 0 0 1-4.962-28.226c0-21.945 8.487-42.632 23.897-58.25 21.87-22.148 53.916-30.162 83.624-20.919l22.515 7.007c-14.789 4.836-32.478 9.286-42.015 7.319-4.046-.834-8.023 1.772-8.861 5.83a7.5 7.5 0 0 0 5.83 8.861c2.47.51 5.206.737 8.133.737 22.193 0 55.105-13.118 62.274-16.089 17.039-4.583 50.683-18.159 68.594-17.406 22.03 0 43.54 8.988 59.012 24.658 22.335 22.637 29.769 56.581 18.937 86.477l-6.113 16.873c-2.401 6.629-8.752 11.083-15.803 11.083h-29.029c-4.143 0-7.5 3.358-7.5 7.5s3.357 7.5 7.5 7.5h29.029c13.343 0 25.361-8.428 29.906-20.973l6.113-16.872c12.791-35.305 4.013-75.391-22.364-102.124-18.273-18.506-43.674-29.121-69.688-29.121a97.65 97.65 0 0 0-29.068 4.419l-41.472 12.906L214.53 6.472c-35.091-10.918-72.929-1.452-98.757 24.704C97.574 49.621 87.552 74.05 87.552 99.964c0 11.385 1.971 22.6 5.858 33.335zM10.33 303.904c33.218-13.523 71.153-13.031 104.788 1.21.606 12.141 2.691 45.831 8.38 79.533 10.164 60.212 26.228 90.595 49.107 92.883 19.309 1.928 36.717-14.317 51.726-48.291 11.501-26.036 19.181-56.96 22.735-73.077.017-.075.031-.149.046-.224 1.2-6.36 7.612-6.682 8.886-6.682s7.692.322 8.894 6.683c.015.075.029.149.046.224 3.555 16.116 11.234 47.041 22.735 73.077 14.212 32.171 30.566 48.445 48.662 48.445 1.015 0 2.038-.051 3.063-.154 22.88-2.289 38.943-32.671 49.107-92.883 5.695-33.735 7.778-67.459 8.382-79.569 33.108-14.268 71.048-14.743 104.815-1.162a7.5 7.5 0 0 0 5.598-13.916c-38.493-15.484-81.894-14.508-119.355 2.628h-17.627l-4.863-13.53c-3.072-8.548-11.24-14.292-20.323-14.292h-56.529V204.41c0-9.338-7.598-16.936-16.937-16.936h-31.33c-9.339 0-16.937 7.598-16.937 16.936v60.396H166.87c-9.083 0-17.251 5.743-20.323 14.292l-4.863 13.529H124.03c-38.034-17.08-81.44-18.051-119.356-2.616a7.5 7.5 0 0 0 5.656 13.893zm228.07-75.943h35.203v10.669H238.4zm1.937-25.487h31.33a1.94 1.94 0 0 1 1.937 1.936v8.55H238.4v-8.55a1.94 1.94 0 0 1 1.937-1.936zM238.4 253.63h35.203v11.176H238.4zm-77.737 30.542a6.614 6.614 0 0 1 6.208-4.366h178.262a6.613 6.613 0 0 1 6.208 4.365l3.039 8.456H220.105c-4.143 0-7.5 3.358-7.5 7.5s3.357 7.5 7.5 7.5h161.628c-.767 13.859-2.904 44.278-8.04 74.65-11.913 70.46-28.996 79.647-35.787 80.327-15.141 1.502-28.199-20.606-36.513-39.427-10.95-24.79-18.342-54.545-21.785-70.144-2.181-11.238-11.653-18.778-23.611-18.777-11.954 0-21.423 7.541-23.602 18.778-3.443 15.599-10.835 45.354-21.785 70.144-15.063 34.1-28.178 40.257-36.513 39.427-6.791-.679-23.874-9.866-35.787-80.327-5.136-30.373-7.273-60.791-8.04-74.65h54.668c4.143 0 7.5-3.358 7.5-7.5s-3.357-7.5-7.5-7.5h-27.314zM504.502 494.991h-497c-4.143 0-7.5 3.358-7.5 7.5s3.357 7.5 7.5 7.5h497a7.5 7.5 0 0 0 0-15z" fill="#bb4958" opacity="1" data-original="#000000"></path><path d="M440.02 361.399a7.479 7.479 0 1 0 14.958 0 7.479 7.479 0 0 0-14.958 0zM61.634 456.348a7.479 7.479 0 1 0 14.958 0 7.479 7.479 0 0 0-14.958 0z" fill="#bb4958" opacity="1" data-original="#000000"></path><circle cx="44.494" cy="427.811" r="7.479" transform="rotate(-9.25 44.27 428.303)" fill="#bb4958" opacity="1" data-original="#000000"></circle></g></svg>