<svg xmlns="http://www.w3.org/2000/svg" version="1.1" xmlns:xlink="http://www.w3.org/1999/xlink" width="512" height="512" x="0" y="0" viewBox="0 0 128 128" style="enable-background:new 0 0 512 512" xml:space="preserve" class=""><g><path d="M63.872 47.851h-.1a25.727 25.727 0 0 1-4.2-.612 1.5 1.5 0 0 1 .689-2.92 22.6 22.6 0 0 0 3.709.538 1.5 1.5 0 0 1-.1 3zm4-.027a1.5 1.5 0 0 1-.119-2.995 19.673 19.673 0 0 0 3.661-.616 1.5 1.5 0 0 1 .8 2.892 22.858 22.858 0 0 1-4.22.714 1.975 1.975 0 0 1-.127.005zm-11.693-1.947a1.486 1.486 0 0 1-.749-.2 6.249 6.249 0 0 1-3.23-3.929 1.5 1.5 0 1 1 2.93-.648 3.529 3.529 0 0 0 1.8 1.982 1.5 1.5 0 0 1-.752 2.8zm19.219-.42a1.5 1.5 0 0 1-.961-2.652 1.8 1.8 0 0 0 .814-1.444 23.717 23.717 0 0 1-.007-.555c0-.151 0-.3.006-.447a1.5 1.5 0 1 1 3 .077v.37c0 .138 0 .279.006.422v.133a4.824 4.824 0 0 1-1.894 3.748 1.492 1.492 0 0 1-.962.348zm-23.169-6.212a1.5 1.5 0 0 1-1.21-.613 13.825 13.825 0 0 0-2.593-2.49A1.5 1.5 0 0 1 50.3 33.8a16.483 16.483 0 0 1 3.134 3.056 1.5 1.5 0 0 1-1.209 2.387zm25.259-1.253a1.5 1.5 0 0 1-1.4-2.037 13.223 13.223 0 0 1 2.329-3.827 1.5 1.5 0 0 1 2.29 1.939 10.014 10.014 0 0 0-1.818 2.962 1.5 1.5 0 0 1-1.401.963zm-31.041-4.239a1.5 1.5 0 0 1-1.2-.593 7.379 7.379 0 0 1-1.541-4.62c0-.828 3-.828 3 0a4.363 4.363 0 0 0 .931 2.806 1.5 1.5 0 0 1-1.194 2.407zm35.708-2.192a1.5 1.5 0 0 1-1.283-2.275 1.365 1.365 0 0 0 .248-.737c0-.828 3-.826 3 0a4.339 4.339 0 0 1-.679 2.284 1.5 1.5 0 0 1-1.286.728zM64 27.688a1.5 1.5 0 0 1-1.5-1.5v-7.979a1.5 1.5 0 0 1 3 0v7.979a1.5 1.5 0 0 1-1.5 1.5z" fill="#bb4958" opacity="1" data-original="#000000"></path><path d="M125.578 14.5h-16.544v-2.772a1.5 1.5 0 1 0-3 0V14.5h-9.367a3.673 3.673 0 0 1-3.6-4.387 3.77 3.77 0 0 1 3.75-2.946h28.759a1.5 1.5 0 0 0 0-3H96.667a6.671 6.671 0 0 0-6.422 4.909l-19.081-3.52a3.958 3.958 0 0 0-3.876-3.039h-6.476A4.015 4.015 0 0 0 56.824 7l1.064 9.025a4.172 4.172 0 0 0 4.141 3.682h4.041a4.172 4.172 0 0 0 4.141-3.682l.877-7.436 19.039 3.514a6.894 6.894 0 0 0 6.826 5.4h28.625a1.5 1.5 0 0 0 0-3zm-58.347 1.176a1.169 1.169 0 0 1-1.161 1.033h-4.041a1.17 1.17 0 0 1-1.161-1.033L59.8 6.65a1.015 1.015 0 0 1 1.009-1.133h6.476A1.015 1.015 0 0 1 68.3 6.65zM103.805 37.292c-6.63-11.374-22.1-12.519-33.229-7.055a14.915 14.915 0 0 1-12.587.218c-.156-.07-1.409-.665-1.883-.868-10.987-4.7-25.459-3.193-31.811 7.705C15.65 52.123 24 73.3 32.524 88.46c3.157 5.612 4.671 13.044 6.008 19.6 1.992 9.775 3.88 19.043 11.057 19.043a9.506 9.506 0 0 0 1.586-.14c5.311-.895 6.331-10.639 7.512-21.922.86-8.221 2.039-19.479 5.364-19.479s4.5 11.258 5.363 19.479c1.18 11.283 2.2 21.027 7.51 21.922 8.5 1.429 10.512-8.444 12.643-18.9 1.336-6.558 2.851-13.99 6.007-19.6 8.526-15.163 16.875-36.34 8.231-51.171zM92.96 86.99c-3.388 6.022-4.952 13.7-6.332 20.473-2.21 10.846-3.834 17.45-9.2 16.543-3.063-.517-4.2-11.359-5.025-19.276-1.245-11.9-2.319-22.167-8.347-22.167s-7.1 10.272-8.348 22.167c-.828 7.917-1.963 18.76-5.027 19.276-5.361.9-6.994-5.7-9.205-16.544-1.38-6.774-2.945-14.451-6.332-20.472C27 72.516 18.957 52.407 26.886 38.8 30.4 32.769 37.1 30.133 44 30.133A28.149 28.149 0 0 1 55.937 32.8c.088.043 1.105.555 1.338.69a16.05 16.05 0 0 1 3.693 3.019c1.518 1.55 2.952 3.014 6.027 3.315a1.5 1.5 0 1 0 .293-2.985A5.625 5.625 0 0 1 63.4 34.7a17.825 17.825 0 0 0 8.5-1.773c9.679-4.754 23.641-3.86 29.314 5.873 7.929 13.607-.114 33.716-8.254 48.19z" fill="#bb4958" opacity="1" data-original="#000000"></path></g></svg>