<svg xmlns="http://www.w3.org/2000/svg" version="1.1" xmlns:xlink="http://www.w3.org/1999/xlink" width="512" height="512" x="0" y="0" viewBox="0 0 74 74" style="enable-background:new 0 0 512 512" xml:space="preserve" class=""><g><circle cx="37.02" cy="17.02" r=".75" fill="#bb4958" opacity="1" data-original="#000000"></circle><path d="M63.05 63.92c-4.12-4.09-9.33-4.03-9.53-4.02h-1.4c-1.16 0-2.21.65-2.74 1.69-1.79 3.53-4.33 5.9-6.32 5.9-1.24 0-2.77-.46-3.59-4.09a2.537 2.537 0 0 0-4.94 0c-.81 3.62-2.34 4.09-3.59 4.09-1.99 0-4.53-2.37-6.32-5.9a3.07 3.07 0 0 0-2.74-1.69H20.5c-.22 0-5.43-.08-9.55 4.02-.29.29-.29.77 0 1.06s.77.29 1.06 0c3.65-3.62 8.42-3.57 8.47-3.58h1.4c.59 0 1.13.33 1.4.87 2.1 4.15 5.04 6.73 7.66 6.73 2.6 0 4.25-1.72 5.05-5.26.1-.46.53-.79 1.01-.79s.9.33 1.01.79c.8 3.54 2.45 5.26 5.05 5.26 2.62 0 5.56-2.58 7.66-6.73.27-.54.81-.87 1.4-.87h1.42c.05 0 4.81-.05 8.46 3.58.29.29.77.29 1.06 0s.28-.77-.01-1.06z" fill="#bb4958" opacity="1" data-original="#000000"></path><path d="M18.06 35c-.5 3.71.85 7.4 3.6 9.89 1.21 1.09 1.9 2.62 1.91 4.18v2.01c0 7.41 4.59 13.91 7.36 13.91 1.84 0 2.87-5.03 3.04-14.97A3.02 3.02 0 0 1 37 47a3.02 3.02 0 0 1 3.02 3.03c.17 9.92 1.2 14.96 3.04 14.96 2.77 0 7.36-6.5 7.36-13.91v-2.01c.01-1.56.7-3.08 1.9-4.17 2.76-2.5 4.11-6.21 3.61-9.93-.62-4.62-4.17-8.44-8.7-9.41-.95-2.61-2.53-5.22-4.04-7.52.78-.69 1.57-1.38 2.35-2.06 3.66-3.19 7.44-6.5 10.24-9.75.27-.31.23-.79-.08-1.06s-.79-.23-1.06.08c-2.73 3.17-6.47 6.44-10.09 9.6-8.28 7.23-16.83 14.69-14.65 22.12-5.66-6.63-1.02-13.48 3.89-20.71 2.28-3.36 4.63-6.83 5.86-10.27a.75.75 0 1 0-1.41-.51c-.32.95-.75 1.89-1.24 2.83-.53-1.02-.94-1.93-1.25-2.81-.14-.39-.57-.6-.96-.46s-.59.57-.45.96c.42 1.19 1.01 2.44 1.8 3.87-1.08 1.86-2.34 3.72-3.58 5.55-.31.45-.62.91-.92 1.37-.77-.68-1.54-1.36-2.31-2.03-3.58-3.13-7.27-6.36-9.98-9.5a.756.756 0 0 0-1.06-.08c-.31.27-.35.74-.08 1.06 2.77 3.22 6.51 6.49 10.13 9.65l2.46 2.16c-1.64 2.49-3.13 5-4.06 7.52-4.53 1-8.07 4.82-8.68 9.43zm27.48-9.68c-1.63-.11-3.23.15-4.71.71-.77-1-1.69-2.06-2.78-3.2 1.26-1.26 2.61-2.51 4.01-3.77 1.28 1.95 2.59 4.11 3.48 6.26zm-8.53 3.12c-.72-.69-1.55-1.28-2.44-1.76.73-.92 1.55-1.85 2.43-2.78.94.99 1.75 1.9 2.43 2.76-.87.48-1.69 1.07-2.42 1.78zm-7.2 10.62c1.69 1.64 2.27-.61 1.94-1.47-1.24-3.19-.4-6.38 1.92-9.69 1.05.54 2.01 1.25 2.79 2.12.01.01.03.02.04.03a9.718 9.718 0 0 1 2.48 6.49c0 .41.34.75.75.75s.75-.34.75-.75c0-2.55-.87-5-2.45-6.98 2.24-2.21 5.4-3.19 8.6-2.59 4.05.74 7.26 4.12 7.81 8.21.44 3.28-.7 6.42-3.13 8.61-1.51 1.37-2.39 3.29-2.4 5.28v2.01c0 6.96-4.29 12.17-5.76 12.4-.85-.91-1.53-7.62-1.64-13.46a4.53 4.53 0 0 0-4.53-4.52c-2.49 0-4.52 2.03-4.52 4.51-.1 5.86-.78 12.57-1.64 13.48-1.47-.23-5.76-5.44-5.76-12.4v-2.01c-.01-1.99-.89-3.92-2.41-5.29-2.38-2.15-3.55-5.35-3.12-8.58.49-3.69 3.16-6.8 6.66-7.93-.99 3.94-.37 7.9 3.62 11.78z" fill="#bb4958" opacity="1" data-original="#000000"></path><path d="M46.01 30.41c2.58.47 4.62 2.62 4.97 5.23.16 1.23-.02 2.46-.54 3.56a.753.753 0 0 0 .68 1.07c.28 0 .55-.16.68-.43.64-1.36.87-2.88.66-4.39-.43-3.25-2.98-5.92-6.19-6.51-.41-.08-.8.2-.87.6-.07.41.2.8.61.87z" fill="#bb4958" opacity="1" data-original="#000000"></path></g></svg>