<svg xmlns="http://www.w3.org/2000/svg" version="1.1" xmlns:xlink="http://www.w3.org/1999/xlink" width="512" height="512" x="0" y="0" viewBox="0 0 100 100" style="enable-background:new 0 0 512 512" xml:space="preserve" class=""><g><path d="M79.552 35.892h-2.667v-8.754c3.217-1.284 5.499-4.426 5.499-8.095 0-4.807-3.911-8.718-8.718-8.718a8.688 8.688 0 0 0-6.298 2.705c-4.502-3.473-11.044-3.757-19.473-.831-.056.02-.096.058-.146.086-2.383-1.044-5.004-1.811-7.792-2.027-5.775-.446-11.223 1.565-16.183 5.97-7.322 6.381-8.182 18.065-2.215 29.713 1.01 2.294 2.645 4.749 4.376 7.348 3.14 4.716 6.702 10.062 6.38 14.765-.068 1.217-.16 2.473-.252 3.737-.507 6.97-.986 13.553 1.776 16.502.924.987 2.14 1.487 3.593 1.487l.124.001c3.142 0 4.64-3.074 4.854-9.941.048-1.322.049-2.74.049-4.242.001-5.747.002-12.9 3.192-13.29 1.194-.08 2.076.15 2.688.697 1.043.932 1.561 2.88 1.734 6.514.049 1.002.037 2.323.025 3.851-.05 5.809-.11 13.037 2.682 15.53a3.482 3.482 0 0 0 2.366.903c.163 0 .327-.01.494-.03 4.068-.521 4.325-6.8 4.597-13.449.12-2.912.242-5.924.699-8.302 1.144-6.115 4.301-11.487 5.585-13.482.066-.096.158-.227.258-.368v29.23a6.41 6.41 0 0 0 6.403 6.402h.964a6.41 6.41 0 0 0 6.406-6.403v-46.51a1 1 0 0 0-1-1zM68.779 51.006c1.61.265 3.248.404 4.887.404s3.275-.14 4.886-.404v10.707a28.459 28.459 0 0 1-9.773 0V51.006zm0 12.738c1.614.264 3.252.403 4.887.403 1.634 0 3.272-.14 4.886-.403V74.45a28.483 28.483 0 0 1-9.773.001V63.744zm9.773-14.77a28.362 28.362 0 0 1-9.773 0V37.893h9.773v11.083zm-3.667-13.082h-1.66l-.01-.002-.009.002h-.759v-8.226c.4.056.804.095 1.219.095s.82-.039 1.219-.095zm-1.219-23.567a6.725 6.725 0 0 1 6.718 6.718 6.726 6.726 0 0 1-6.718 6.718 6.726 6.726 0 0 1-6.719-6.718 6.726 6.726 0 0 1 6.719-6.718zm-8.807 41.103c-1.699 2.638-4.723 7.996-5.89 14.222-.482 2.52-.609 5.607-.73 8.592-.217 5.269-.46 11.24-2.847 11.546-.514.059-.92-.059-1.28-.38-2.117-1.89-2.055-9.19-2.014-14.02.012-1.56.024-2.907-.027-3.965-.15-3.127-.543-6.25-2.4-7.91-1.031-.922-2.395-1.316-4.205-1.197-5.005.61-5.006 8.405-5.007 15.282 0 1.482 0 2.882-.048 4.173-.25 8.054-2.238 8.008-2.924 8.01-.957-.017-1.644-.273-2.189-.855-2.163-2.31-1.673-9.046-1.24-14.99.092-1.274.185-2.541.253-3.757.367-5.371-3.394-11.018-6.712-16-1.682-2.524-3.27-4.908-4.235-7.097-5.559-10.854-4.882-21.589 1.731-27.353 4.544-4.034 9.49-5.88 14.697-5.478 10.78.826 19.305 10.977 19.39 11.08a1 1 0 1 0 1.54-1.275c-.246-.3-4.293-5.12-10.452-8.523 6.912-2.087 12.247-1.72 15.891 1.094a8.659 8.659 0 0 0-1.214 4.416c0 3.67 2.282 6.811 5.5 8.095v8.754H67.78a1 1 0 0 0-1 1v13.906c-.669.836-1.764 2.405-1.92 2.63zm9.287 34.376h-.964a4.407 4.407 0 0 1-4.403-4.403v-6.92c1.607.263 3.244.402 4.887.402s3.28-.139 4.886-.402v6.92a4.409 4.409 0 0 1-4.406 4.403z" fill="#bb4958" opacity="1" data-original="#000000" class=""></path><path d="M74.022 24.07h.011a1 1 0 0 0 .01-2c-1.15-.013-2.114-.46-2.457-1.136a1 1 0 0 0-1.785.903c.686 1.355 2.303 2.21 4.221 2.232z" fill="#bb4958" opacity="1" data-original="#000000" class=""></path></g></svg>