<svg xmlns="http://www.w3.org/2000/svg" version="1.1" xmlns:xlink="http://www.w3.org/1999/xlink" width="512" height="512" x="0" y="0" viewBox="0 0 128 128" style="enable-background:new 0 0 512 512" xml:space="preserve" class=""><g><path d="M79.211 116.865c-3.717 0-4.024-5.125-4.489-12.882-.515-8.573-1.222-20.315-7.272-25.265-2.479-2.029-4.239-2.031-6.721 0-6.052 4.95-6.755 16.692-7.269 25.265-.465 7.757-.773 12.881-4.488 12.881-3.393 0-4.051-5.512-5.142-14.645-.726-6.083-1.549-12.977-3.33-17.338-.355-.87-.724-1.752-1.1-2.644-3.976-9.527-8.485-20.327-3.23-30.344 3.849-7.343 14.25-8.292 22.082-5.452a17.155 17.155 0 0 0 11.671 0c7.83-2.838 18.23-1.892 22.082 5.451 5.254 10.015.747 20.813-3.23 30.34-.372.893-.741 1.776-1.1 2.648-1.782 4.361-2.605 11.256-3.331 17.339-1.083 9.135-1.744 14.646-5.133 14.646zm-29.33-68.894c-4.706 0-9.117 1.63-11.051 5.315-4.6 8.771-.38 18.879 3.343 27.8q.564 1.347 1.1 2.664c1.935 4.737 2.784 11.846 3.533 18.117.47 3.94 1.084 9.089 1.891 11.2a.392.392 0 0 0 .739-.031c.58-1.805.831-6 1.025-9.224.547-9.128 1.3-21.63 8.367-27.412a8.26 8.26 0 0 1 10.518 0c7.068 5.782 7.819 18.281 8.366 27.408.193 3.216.444 7.391 1.042 9.215a.391.391 0 0 0 .735.011c.8-2.128 1.412-7.246 1.88-11.165.749-6.272 1.6-13.381 3.532-18.118.359-.878.731-1.768 1.106-2.669 3.721-8.917 7.94-19.023 3.342-27.792-2.952-5.626-11.675-6.462-18.4-4.024a20.155 20.155 0 0 1-13.714 0 21.886 21.886 0 0 0-7.354-1.295z" fill="#bb4958" opacity="1" data-original="#000000"></path><path d="M103.848 37.03c-6.63-11.374-22.1-12.519-33.229-7.055a14.915 14.915 0 0 1-12.587.218c-.156-.07-1.409-.665-1.883-.868-10.987-4.7-25.459-3.193-31.811 7.705-8.645 14.831-.3 36.012 8.23 51.168 3.156 5.612 4.671 13.044 6.007 19.6 1.992 9.775 3.88 19.043 11.057 19.043a9.517 9.517 0 0 0 1.587-.14c5.31-.895 6.33-10.639 7.511-21.922.86-8.221 2.039-19.48 5.364-19.48s4.5 11.259 5.363 19.48c1.18 11.283 2.2 21.027 7.51 21.922 8.5 1.429 10.512-8.444 12.644-18.9 1.336-6.558 2.85-13.99 6.006-19.6 8.527-15.159 16.875-36.34 8.231-51.171zM93 86.728c-3.388 6.022-4.952 13.7-6.332 20.473-2.21 10.846-3.834 17.452-9.205 16.543-3.063-.516-4.2-11.359-5.025-19.276C71.2 92.573 70.122 82.3 64.094 82.3s-7.1 10.273-8.348 22.168c-.828 7.917-1.963 18.76-5.027 19.276-5.361.9-6.994-5.7-9.2-16.544-1.38-6.774-2.944-14.451-6.332-20.472C27.041 72.254 19 52.145 26.929 38.541c3.518-6.034 10.219-8.67 17.112-8.67A28.149 28.149 0 0 1 55.98 32.54c.088.043 1.105.555 1.339.69a16.064 16.064 0 0 1 3.692 3.019c1.518 1.55 2.952 3.014 6.027 3.315a1.5 1.5 0 1 0 .293-2.985 5.625 5.625 0 0 1-3.889-2.138 17.825 17.825 0 0 0 8.5-1.773c9.679-4.754 23.641-3.86 29.314 5.873 7.93 13.604-.111 33.713-8.256 48.187z" fill="#bb4958" opacity="1" data-original="#000000"></path><path d="M104.435 1.589a5.222 5.222 0 0 0-7.377.327L88.61 11.15a5.146 5.146 0 0 0-.665 6.1 167.383 167.383 0 0 0-28.783 40.3 119.421 119.421 0 0 0-9.115 24 85.447 85.447 0 0 0-2.234 12.707 73.791 73.791 0 0 0 .04 12.856.861.861 0 0 0 1.717-.059v-.014c.114-4.182.337-8.4.758-12.543a91.359 91.359 0 0 1 2.294-12.287A116.708 116.708 0 0 1 61.7 58.838a160.213 160.213 0 0 1 13.278-21.379 180.256 180.256 0 0 1 15.158-18.133 5.175 5.175 0 0 0 2.557.566c.077 0 .152-.008.226-.015a5.178 5.178 0 0 0 3.395-1.677l8.448-9.234a5.22 5.22 0 0 0-.327-7.377zm-1.885 5.352-8.45 9.234a2.222 2.222 0 1 1-3.278-3l8.448-9.234a2.222 2.222 0 0 1 3.279 3z" fill="#bb4958" opacity="1" data-original="#000000"></path></g></svg>