<svg xmlns="http://www.w3.org/2000/svg" version="1.1" xmlns:xlink="http://www.w3.org/1999/xlink" width="512" height="512" x="0" y="0" viewBox="0 0 512 512" style="enable-background:new 0 0 512 512" xml:space="preserve" class=""><g><path d="M132.31 210.71v-1.54c0-27.19 22.11-50.02 49.27-50.89 3.32-.11 6.08 2.49 6.19 5.81s-2.49 6.08-5.81 6.19c-20.76.66-37.65 18.11-37.65 38.9v1.54c0 14.35 5.58 27.72 15.32 36.66 2.44 2.24 2.6 6.04.36 8.48a5.972 5.972 0 0 1-4.42 1.94c-1.45 0-2.91-.52-4.06-1.58-12.2-11.22-19.2-27.81-19.2-45.51zM497 313.32V491c0 3.31-2.69 6-6 6H21c-3.31 0-6-2.69-6-6V313.32c0-2.5 1.55-4.73 3.88-5.61l56.85-21.42c18.02-6.79 36.89-6.89 54.15-.51-.29-2.82-.6-5.59-.93-8.3-17.56-16.99-27.59-41.19-27.59-66.76v-1.54c0-21.52 8.34-41.86 23.48-57.29 15.12-15.4 35.26-24.12 56.73-24.55h.22c14.38.24 28.41 3.05 41.71 8.35 21.87 8.72 43.13 8.72 65 0 12.67-5.05 26-7.84 39.66-8.3a86.116 86.116 0 0 1-3.99-25.97c0-47.65 38.77-86.42 86.42-86.42S497 53.77 497 101.42s-38.77 86.42-86.42 86.42c-.94 0-1.88-.02-2.82-.05 1.89 6.94 2.86 14.1 2.86 21.39v1.54c0 25.57-10.03 49.77-27.59 66.76-.33 2.71-.64 5.47-.93 8.3 17.27-6.38 36.14-6.28 54.15.51l56.85 21.42c2.35.88 3.9 3.11 3.9 5.61zm-160.83-211.9c0 41.03 33.38 74.42 74.42 74.42S485 142.45 485 101.42 451.62 27 410.59 27s-74.42 33.38-74.42 74.42zM138.7 270.16a6.01 6.01 0 0 1 1.89 3.65c1.52 11.8 2.56 24.62 3.66 38.2 4.25 52.53 9.08 112.08 44.11 140.64 2.46 2 5.17 2.69 8.29 2.08s5.37-2.26 6.9-5.04c8.17-14.92 12.95-32.19 13.83-49.93.87-17.68 4.2-32.71 10.79-48.74 4.73-11.51 15.4-18.66 27.84-18.66s23.11 7.15 27.84 18.66c6.59 16.03 9.91 31.06 10.79 48.74.88 17.74 5.66 35.01 13.83 49.93 1.53 2.79 3.78 4.44 6.9 5.04 3.12.61 5.83-.07 8.29-2.08 35.04-28.57 39.86-88.11 44.11-140.64 1.1-13.58 2.14-26.4 3.66-38.2.18-1.4.85-2.7 1.89-3.65 16.1-14.79 25.33-36.46 25.33-59.46v-1.54c0-7.82-1.29-15.47-3.83-22.78-27.18-5.04-49.94-22.84-61.8-46.93-.9-.05-1.81-.1-2.71-.12-12.88.23-25.45 2.75-37.35 7.5-24.51 9.78-49.37 9.78-73.89 0-11.91-4.75-24.47-7.27-37.35-7.5-37.69.81-68.33 32.12-68.33 69.84v1.54c-.02 22.99 9.21 44.66 25.31 59.45zM485 317.47l-52.97-19.96c-17.43-6.57-35.06-5.93-51.19 1.78-.38 4.46-.75 9.03-1.13 13.69-4.45 54.92-9.49 117.18-48.49 148.98-4.05 3.3-8.72 4.99-13.7 4.99-1.47 0-2.96-.15-4.47-.44-6.65-1.3-11.88-5.12-15.13-11.06-9.04-16.5-14.32-35.56-15.29-55.1-.8-16.26-3.86-30.06-9.9-44.77-2.89-7.02-9.14-11.22-16.74-11.22s-13.85 4.19-16.74 11.22c-6.04 14.71-9.1 28.51-9.9 44.77-.97 19.54-6.25 38.6-15.29 55.1-3.25 5.94-8.48 9.76-15.12 11.06s-12.93-.28-18.17-4.55c-39-31.8-44.04-94.05-48.49-148.97-.38-4.66-.75-9.23-1.13-13.7-16.13-7.71-33.76-8.35-51.19-1.78L27 317.47V485h458zM362 117.25V85.58c0-3.31 2.69-6 6-6h20.74V58.83c0-3.31 2.69-6 6-6h31.67c3.31 0 6 2.69 6 6v20.74h20.74c3.31 0 6 2.69 6 6v31.67c0 3.31-2.69 6-6 6h-20.74V144c0 3.31-2.69 6-6 6h-31.67c-3.31 0-6-2.69-6-6v-20.74H368c-3.31-.01-6-2.7-6-6.01zm12-6h20.74c3.31 0 6 2.69 6 6V138h19.67v-20.74c0-3.31 2.69-6 6-6h20.74V91.58h-20.74c-3.31 0-6-2.69-6-6V64.83h-19.67v20.74c0 3.31-2.69 6-6 6H374z" fill="#bb4958" opacity="1" data-original="#000000"></path></g></svg>